# xmcd
#
# Track frame offsets: 
#        150
#        14094
#        31220
#        45522
#        66169
#        89218
#        108389
#        124863
#        138555
#        155748
#        173608
#        190171
#        207338
#        224084
#        240090
#
# Disc length: 3435 seconds
#
# Revision: 0
# Processed by: cddbd v1.5.2PL0 Copyright (c) Steve Scherf et al.
# Submitted via: ExactAudioCopy v0.99pb4
#
DISCID=dc0d690f
DTITLE=Various Artist - 經典發燒唱片2007-十五名聲
DYEAR=2007
DGENRE=Pop-Folk
TTITLE0=少女慈禧 - 柳影紅
TTITLE1=離別的叮嚀 - 張偉文
TTITLE2=小燕 - 關菊英
TTITLE3=石頭記 - 達明一派
TTITLE4=似水流年 - 梅艷芳
TTITLE5=痴心愿記取 - 許\冠英
TTITLE6=只因喜歡你 - 林海峰/周美茵
TTITLE7=陌上歸人 -區瑞強
TTITLE8=在水中央 - 關菊英
TTITLE9=這是愛 - 泰迪羅賓
TTITLE10=海上花 - 甄妮
TTITLE11=忘盡心中情 - 葉振棠
TTITLE12=深夜港灣 - 甄楚倩
TTITLE13=世事何曾是絕對 - 盧冠庭
TTITLE14=千個太陽 - 陳潔靈
EXTD=
EXTT0=
EXTT1=
EXTT2=
EXTT3=
EXTT4=
EXTT5=
EXTT6=
EXTT7=
EXTT8=
EXTT9=
EXTT10=
EXTT11=
EXTT12=
EXTT13=
EXTT14=
PLAYORDER=
